<svg width="319" height="185" viewBox="0 0 319 185" fill="none" xmlns="http://www.w3.org/2000/svg">
<rect width="319" height="185" rx="4" fill="#E6EDFF"/>
<path d="M28.3047 32.4141H26.5625V18.2656H28.3047V32.4141ZM27.5 22.6094H23.7812V21.1953H27.5V22.6094ZM27.5 26.0781H23.7812V24.625H27.5V26.0781ZM21.3359 21.6562C21.3359 22.7969 21.1823 23.8828 20.875 24.9141C20.5677 25.9453 20.1198 26.8594 19.5312 27.6562C18.9427 28.4479 18.2422 29.0573 17.4297 29.4844L16.3281 28.0859C17.0781 27.737 17.724 27.2266 18.2656 26.5547C18.8073 25.8828 19.2188 25.125 19.5 24.2812C19.7812 23.4323 19.9219 22.5573 19.9219 21.6562V19.3984H21.3359V21.6562ZM21.6875 21.6562C21.6875 22.5573 21.8229 23.4219 22.0938 24.25C22.3698 25.0781 22.7708 25.8125 23.2969 26.4531C23.8281 27.0938 24.4583 27.5833 25.1875 27.9219L24.1406 29.3203C23.3281 28.9193 22.6302 28.3333 22.0469 27.5625C21.4688 26.7865 21.0312 25.8932 20.7344 24.8828C20.4375 23.8724 20.2891 22.7969 20.2891 21.6562V19.3984H21.6875V21.6562ZM41.7266 23.8672H31.9219V22.6641H41.7266V23.8672ZM41.625 19.7812H33.6641V23.25H31.9219V18.5859H41.625V19.7812ZM41.2734 21.7812H33.1562V20.6172H41.2734V21.7812ZM43.1484 25.9766H30.3203V24.6641H43.1484V25.9766ZM41.5703 30.0625H33.5391V31.6094H31.8203V28.8828H39.8516V28.0156H31.8125V26.7812H41.5703V30.0625ZM41.9531 32.2656H31.8203V31.0078H41.9531V32.2656ZM60.8359 26.6328H47.9297V25.2422H60.8359V26.6328ZM55.3672 29.2344H53.6094V26.1484H55.3672V29.2344ZM59.4062 32.125H49.5V30.6875H59.4062V32.125ZM51.2578 31.0781H49.5V27.9219H51.2578V31.0781ZM54.375 18.5703C55.3854 18.5703 56.2708 18.6901 57.0312 18.9297C57.7917 19.1693 58.3802 19.5052 58.7969 19.9375C59.2188 20.3698 59.4297 20.8802 59.4297 21.4688C59.4297 22.0521 59.2188 22.5599 58.7969 22.9922C58.3802 23.4245 57.7917 23.7578 57.0312 23.9922C56.2708 24.2266 55.3854 24.3438 54.375 24.3438C53.3646 24.3438 52.4766 24.2266 51.7109 23.9922C50.9453 23.7578 50.3516 23.4245 49.9297 22.9922C49.5078 22.5599 49.2969 22.0521 49.2969 21.4688C49.2969 20.8802 49.5078 20.3698 49.9297 19.9375C50.3516 19.5052 50.9453 19.1693 51.7109 18.9297C52.4766 18.6901 53.3646 18.5703 54.375 18.5703ZM54.375 19.9531C53.7292 19.9531 53.1641 20.013 52.6797 20.1328C52.1953 20.2474 51.8229 20.4193 51.5625 20.6484C51.3021 20.8776 51.1719 21.151 51.1719 21.4688C51.1719 21.776 51.3021 22.0417 51.5625 22.2656C51.8229 22.4844 52.1953 22.6536 52.6797 22.7734C53.1641 22.888 53.7292 22.9453 54.375 22.9453C55.026 22.9453 55.5911 22.888 56.0703 22.7734C56.5495 22.6536 56.9167 22.4844 57.1719 22.2656C57.4323 22.0417 57.5625 21.776 57.5625 21.4688C57.5625 21.151 57.4323 20.8776 57.1719 20.6484C56.9167 20.4193 56.5495 20.2474 56.0703 20.1328C55.5911 20.013 55.026 19.9531 54.375 19.9531ZM73.8438 27.1406H72.1875V18.2656H73.8438V27.1406ZM72.6406 23.3047H70.1953V21.8828H72.6406V23.3047ZM70.8125 26.6641H69.1875V18.5391H70.8125V26.6641ZM68.7188 21.1641H61.6953V19.7969H68.7188V21.1641ZM65.2266 21.7344C65.8203 21.7344 66.349 21.8359 66.8125 22.0391C67.276 22.237 67.638 22.5234 67.8984 22.8984C68.1589 23.2682 68.2891 23.6953 68.2891 24.1797C68.2891 24.6589 68.1589 25.0807 67.8984 25.4453C67.638 25.8099 67.276 26.0938 66.8125 26.2969C66.349 26.5 65.8203 26.6016 65.2266 26.6016C64.6432 26.6016 64.1198 26.5 63.6562 26.2969C63.1927 26.0938 62.8307 25.8099 62.5703 25.4453C62.3151 25.0807 62.1875 24.6589 62.1875 24.1797C62.1875 23.6953 62.3151 23.2682 62.5703 22.8984C62.8307 22.5234 63.1901 22.237 63.6484 22.0391C64.112 21.8359 64.638 21.7344 65.2266 21.7344ZM65.2266 22.9844C64.9349 22.9844 64.6771 23.0339 64.4531 23.1328C64.2292 23.2266 64.0521 23.3646 63.9219 23.5469C63.7969 23.724 63.7344 23.9349 63.7344 24.1797C63.7344 24.4141 63.7969 24.6224 63.9219 24.8047C64.0521 24.9818 64.2292 25.1198 64.4531 25.2188C64.6771 25.3125 64.9349 25.3594 65.2266 25.3594C65.5182 25.3594 65.776 25.3125 66 25.2188C66.2292 25.1198 66.4062 24.9818 66.5312 24.8047C66.6562 24.6224 66.7188 24.4141 66.7188 24.1797C66.7188 23.9349 66.6562 23.724 66.5312 23.5469C66.4062 23.3646 66.2292 23.2266 66 23.1328C65.776 23.0339 65.5182 22.9844 65.2266 22.9844ZM66.0781 20.7031H64.3516V18.3906H66.0781V20.7031ZM69.0781 27.3203C70.0885 27.3203 70.9557 27.4193 71.6797 27.6172C72.4036 27.8099 72.9557 28.0964 73.3359 28.4766C73.7214 28.8568 73.9141 29.3177 73.9141 29.8594C73.9141 30.3854 73.7214 30.8359 73.3359 31.2109C72.9557 31.5911 72.401 31.8776 71.6719 32.0703C70.9427 32.2682 70.0781 32.3672 69.0781 32.3672C68.0729 32.3672 67.2083 32.2682 66.4844 32.0703C65.7604 31.8776 65.2057 31.5911 64.8203 31.2109C64.4349 30.8359 64.2422 30.3854 64.2422 29.8594C64.2422 29.3177 64.4349 28.8568 64.8203 28.4766C65.2057 28.0964 65.7604 27.8099 66.4844 27.6172C67.2083 27.4193 68.0729 27.3203 69.0781 27.3203ZM69.0781 28.6328C68.4062 28.6276 67.8385 28.6719 67.375 28.7656C66.9167 28.8542 66.5677 28.9922 66.3281 29.1797C66.0938 29.362 65.9766 29.5885 65.9766 29.8594C65.9766 30.1146 66.0938 30.3333 66.3281 30.5156C66.5677 30.6927 66.9193 30.8281 67.3828 30.9219C67.8464 31.0104 68.4115 31.0547 69.0781 31.0547C69.75 31.0547 70.3151 31.0104 70.7734 30.9219C71.2318 30.8281 71.5807 30.6927 71.8203 30.5156C72.0599 30.3333 72.1797 30.1146 72.1797 29.8594C72.1797 29.5833 72.0599 29.3542 71.8203 29.1719C71.5807 28.9896 71.2318 28.8542 70.7734 28.7656C70.3151 28.6719 69.75 28.6276 69.0781 28.6328ZM89.8594 20.5234H80.9297V19.125H89.8594V20.5234ZM92.2734 26.5625H79.4141V25.1484H92.2734V26.5625ZM86.6641 32.4062H84.9141V26.125H86.6641V32.4062ZM90.7031 20.3828C90.7031 21.0755 90.6927 21.6693 90.6719 22.1641C90.6562 22.6589 90.6068 23.2318 90.5234 23.8828C90.4453 24.5339 90.3203 25.2396 90.1484 26L88.4297 25.8047C88.6016 25.0807 88.7266 24.4036 88.8047 23.7734C88.8828 23.138 88.9297 22.5781 88.9453 22.0938C88.9609 21.6094 88.9688 21.0391 88.9688 20.3828V19.125H90.7031V20.3828ZM104.375 28.4531H102.617V18.2656H104.375V28.4531ZM106.352 23.7734H103.859V22.3359H106.352V23.7734ZM100.539 19.3359C100.539 20.5703 100.279 21.6901 99.7578 22.6953C99.237 23.7005 98.4792 24.5651 97.4844 25.2891C96.4948 26.013 95.3021 26.5833 93.9062 27L93.1719 25.6172C94.3438 25.2734 95.3385 24.8307 96.1562 24.2891C96.9792 23.7422 97.6042 23.1198 98.0312 22.4219C98.4583 21.724 98.6719 20.9766 98.6719 20.1797V19.3359H100.539ZM99.625 20.7656H93.7812V19.3359H99.625V20.7656ZM104.914 32.125H95.3047V30.7031H104.914V32.125ZM97.0547 31.3203H95.3047V27.4141H97.0547V31.3203Z" fill="#222222"/>
<rect x="20" y="55" width="279" height="110" rx="4" stroke="#0033CC" stroke-width="2"/>
<path d="M46.0898 99.1523H43.54V97.9424H46.0898V99.1523ZM46.0898 101.442H43.54V100.219H46.0898V101.442ZM43.3145 97.9492H36.7451V96.7188H43.3145V97.9492ZM36.417 101.634C37.7979 101.629 39.0807 101.609 40.2656 101.572C41.4551 101.531 42.5579 101.449 43.5742 101.326L43.6357 102.454C42.5967 102.623 41.4893 102.737 40.3135 102.796C39.1377 102.851 37.8958 102.878 36.5879 102.878L36.417 101.634ZM39.2949 102.058H37.8252V97.7236H39.2949V102.058ZM42.2139 102.058H40.7578V97.7236H42.2139V102.058ZM46.7598 103.432H45.2422V95.8574H46.7598V103.432ZM42.583 103.65C43.458 103.65 44.2122 103.739 44.8457 103.917C45.4792 104.095 45.9622 104.354 46.2949 104.696C46.6322 105.038 46.8008 105.448 46.8008 105.927C46.8008 106.396 46.6322 106.802 46.2949 107.144C45.9577 107.485 45.4723 107.745 44.8389 107.923C44.21 108.105 43.458 108.196 42.583 108.196C41.7126 108.196 40.9606 108.105 40.3271 107.923C39.6937 107.745 39.2083 107.485 38.8711 107.144C38.5384 106.802 38.3721 106.396 38.3721 105.927C38.3721 105.448 38.5407 105.038 38.8779 104.696C39.2197 104.354 39.7051 104.095 40.334 103.917C40.9629 103.739 41.7126 103.65 42.583 103.65ZM42.583 104.812C42.0042 104.812 41.5143 104.854 41.1133 104.936C40.7122 105.018 40.4069 105.143 40.1973 105.312C39.9876 105.48 39.8828 105.685 39.8828 105.927C39.8828 106.164 39.9876 106.367 40.1973 106.535C40.4069 106.699 40.7122 106.825 41.1133 106.911C41.5143 106.993 42.0042 107.034 42.583 107.034C43.1618 107.034 43.654 106.993 44.0596 106.911C44.4652 106.825 44.7705 106.699 44.9756 106.535C45.1807 106.367 45.2832 106.164 45.2832 105.927C45.2832 105.681 45.1784 105.476 44.9688 105.312C44.7637 105.143 44.4583 105.018 44.0527 104.936C43.6517 104.854 43.1618 104.812 42.583 104.812ZM53.0488 105.195H51.5244V103.179H53.0488V105.195ZM58.2852 108.203H56.7539V95.8574H58.2852V108.203ZM60.0215 102.222H57.7793V100.964H60.0215V102.222ZM48.3662 104.785C49.8838 104.79 51.2715 104.769 52.5293 104.724C53.7871 104.678 54.9766 104.578 56.0977 104.423L56.2002 105.544C55.3799 105.69 54.5277 105.799 53.6436 105.872C52.764 105.94 51.9346 105.986 51.1553 106.009C50.376 106.032 49.5169 106.043 48.5781 106.043L48.3662 104.785ZM55.9541 98.4824H48.5918V97.2793H55.9541V98.4824ZM52.3037 99.0498C52.8825 99.0498 53.3975 99.1478 53.8486 99.3438C54.3044 99.5352 54.6598 99.8063 54.915 100.157C55.1702 100.504 55.2979 100.905 55.2979 101.36C55.2979 101.812 55.1702 102.21 54.915 102.557C54.6598 102.903 54.3044 103.174 53.8486 103.37C53.3975 103.562 52.8825 103.657 52.3037 103.657C51.7158 103.657 51.194 103.562 50.7383 103.37C50.2826 103.174 49.9294 102.905 49.6787 102.563C49.4281 102.217 49.3027 101.816 49.3027 101.36C49.3027 100.905 49.4281 100.504 49.6787 100.157C49.9294 99.8063 50.2826 99.5352 50.7383 99.3438C51.194 99.1478 51.7158 99.0498 52.3037 99.0498ZM52.3037 100.212C51.9938 100.212 51.7204 100.257 51.4834 100.349C51.2464 100.44 51.0618 100.572 50.9297 100.745C50.8021 100.918 50.7383 101.123 50.7383 101.36C50.7383 101.593 50.8021 101.796 50.9297 101.969C51.0573 102.142 51.2396 102.272 51.4766 102.358C51.7181 102.445 51.9938 102.488 52.3037 102.488C52.609 102.488 52.8779 102.445 53.1104 102.358C53.3473 102.272 53.5296 102.142 53.6572 101.969C53.7848 101.796 53.8486 101.593 53.8486 101.36C53.8486 101.123 53.7848 100.918 53.6572 100.745C53.5296 100.572 53.3473 100.44 53.1104 100.349C52.8779 100.257 52.609 100.212 52.3037 100.212ZM53.0488 98.1406H51.5244V95.9121H53.0488V98.1406ZM64.6221 96.7051C65.2692 96.7051 65.8503 96.8327 66.3652 97.0879C66.8802 97.3431 67.2835 97.6986 67.5752 98.1543C67.8669 98.6055 68.0127 99.1204 68.0127 99.6992C68.0127 100.278 67.8669 100.795 67.5752 101.251C67.2835 101.702 66.8802 102.055 66.3652 102.311C65.8548 102.566 65.2738 102.693 64.6221 102.693C63.984 102.693 63.4053 102.566 62.8857 102.311C62.3662 102.055 61.9583 101.702 61.6621 101.251C61.3704 100.795 61.2246 100.278 61.2246 99.6992C61.2246 99.1204 61.3704 98.6055 61.6621 98.1543C61.9583 97.6986 62.3662 97.3431 62.8857 97.0879C63.4053 96.8327 63.984 96.7051 64.6221 96.7051ZM64.6221 98.0244C64.262 98.0244 63.9385 98.0928 63.6514 98.2295C63.3643 98.3662 63.1387 98.5622 62.9746 98.8174C62.8105 99.068 62.7285 99.362 62.7285 99.6992C62.7285 100.036 62.8105 100.33 62.9746 100.581C63.1387 100.832 63.3643 101.028 63.6514 101.169C63.9385 101.306 64.262 101.374 64.6221 101.374C64.9912 101.374 65.3193 101.306 65.6064 101.169C65.8936 101.028 66.1169 100.832 66.2764 100.581C66.4404 100.33 66.5225 100.036 66.5225 99.6992C66.5225 99.362 66.4404 99.068 66.2764 98.8174C66.1169 98.5622 65.8936 98.3662 65.6064 98.2295C65.3193 98.0928 64.9912 98.0244 64.6221 98.0244ZM70.8975 108.237H69.3936V95.8574H70.8975V108.237ZM60.6641 104.402C61.6758 104.398 62.5918 104.386 63.4121 104.368C64.2324 104.35 65.1051 104.313 66.0303 104.259C66.9554 104.2 67.8281 104.111 68.6484 103.992L68.7646 105.1C67.9124 105.255 67.0283 105.373 66.1123 105.455C65.1963 105.537 64.335 105.59 63.5283 105.612C62.7262 105.635 61.8353 105.646 60.8555 105.646L60.6641 104.402ZM78.7109 97.8057H73.3174V96.5684H78.7109V97.8057ZM76.4961 102.324H74.9854V99.3027H76.4961V102.324ZM79.6201 97.3203C79.6156 97.9401 79.5951 98.4915 79.5586 98.9746C79.5221 99.4577 79.4378 100.002 79.3057 100.608L77.8154 100.485C77.943 99.8747 78.0228 99.3369 78.0547 98.8721C78.0866 98.4027 78.1025 97.8854 78.1025 97.3203V96.5684H79.6201V97.3203ZM82.5664 103.459H81.0078V95.8574H82.5664V103.459ZM84.1729 100.287H81.9102V99.0225H84.1729V100.287ZM72.5791 101.606C74.0921 101.602 75.4775 101.577 76.7354 101.531C77.9932 101.481 79.1781 101.388 80.29 101.251L80.3721 102.324C79.2145 102.52 77.9909 102.655 76.7012 102.728C75.4115 102.8 74.083 102.837 72.7158 102.837L72.5791 101.606ZM78.4238 103.603C79.2943 103.603 80.0462 103.694 80.6797 103.876C81.3132 104.054 81.8008 104.313 82.1426 104.655C82.4844 104.997 82.6553 105.4 82.6553 105.865C82.6553 106.353 82.4844 106.768 82.1426 107.109C81.8053 107.456 81.32 107.72 80.6865 107.902C80.0531 108.085 79.2988 108.176 78.4238 108.176C77.5534 108.176 76.7992 108.085 76.1611 107.902C75.5277 107.72 75.04 107.456 74.6982 107.109C74.3564 106.768 74.1855 106.353 74.1855 105.865C74.1855 105.4 74.3564 104.997 74.6982 104.655C75.04 104.313 75.5299 104.054 76.168 103.876C76.8105 103.694 77.5625 103.603 78.4238 103.603ZM78.4238 104.778C77.8633 104.774 77.3802 104.815 76.9746 104.901C76.569 104.983 76.2591 105.106 76.0449 105.271C75.8353 105.435 75.7305 105.633 75.7305 105.865C75.7305 106.111 75.8353 106.319 76.0449 106.487C76.2546 106.651 76.5599 106.777 76.9609 106.863C77.362 106.95 77.8496 106.993 78.4238 106.993C79.0026 106.993 79.4902 106.95 79.8867 106.863C80.2832 106.777 80.584 106.651 80.7891 106.487C80.9941 106.319 81.0967 106.111 81.0967 105.865C81.0967 105.633 80.9919 105.435 80.7822 105.271C80.5771 105.106 80.2741 104.983 79.873 104.901C79.472 104.815 78.9889 104.774 78.4238 104.778ZM88.9512 98.0928C88.9512 98.8721 88.8167 99.6035 88.5479 100.287C88.279 100.966 87.8802 101.559 87.3516 102.064C86.8275 102.566 86.1917 102.944 85.4443 103.199L84.6719 101.989C85.3145 101.775 85.8636 101.47 86.3193 101.073C86.7796 100.672 87.126 100.216 87.3584 99.7061C87.5954 99.1911 87.7139 98.6533 87.7139 98.0928V97.2178H88.9512V98.0928ZM89.2451 98.0859C89.2451 98.5964 89.3545 99.084 89.5732 99.5488C89.792 100.009 90.1178 100.419 90.5508 100.779C90.9883 101.135 91.5192 101.41 92.1436 101.606L91.4258 102.803C90.6966 102.57 90.0745 102.222 89.5596 101.757C89.0492 101.292 88.6618 100.745 88.3975 100.116C88.1331 99.4873 88.001 98.8105 88.001 98.0859V97.2178H89.2451V98.0859ZM91.8086 97.9424H85.1025V96.7188H91.8086V97.9424ZM94.5566 103.227H93.0391V95.8574H94.5566V103.227ZM96.2861 100.068H94.126V98.8174H96.2861V100.068ZM90.5371 103.5C91.3893 103.5 92.1253 103.591 92.7451 103.773C93.3695 103.956 93.8457 104.225 94.1738 104.58C94.5065 104.931 94.6729 105.35 94.6729 105.838C94.6729 106.326 94.5065 106.747 94.1738 107.103C93.8457 107.458 93.3695 107.729 92.7451 107.916C92.1253 108.103 91.3893 108.196 90.5371 108.196C89.6803 108.196 88.9375 108.103 88.3086 107.916C87.6797 107.729 87.1943 107.458 86.8525 107.103C86.5153 106.747 86.3467 106.326 86.3467 105.838C86.3467 105.35 86.5153 104.931 86.8525 104.58C87.1898 104.225 87.6729 103.956 88.3018 103.773C88.9352 103.591 89.6803 103.5 90.5371 103.5ZM90.5371 104.689C89.9766 104.689 89.4958 104.733 89.0947 104.819C88.6982 104.901 88.3952 105.029 88.1855 105.202C87.9805 105.375 87.8779 105.587 87.8779 105.838C87.8779 106.084 87.9805 106.296 88.1855 106.474C88.3952 106.651 88.6982 106.786 89.0947 106.877C89.4912 106.964 89.972 107.007 90.5371 107.007C91.1068 107.007 91.5876 106.964 91.9795 106.877C92.376 106.786 92.6745 106.651 92.875 106.474C93.0755 106.296 93.1758 106.084 93.1758 105.838C93.1758 105.587 93.0755 105.375 92.875 105.202C92.6745 105.029 92.376 104.901 91.9795 104.819C91.583 104.733 91.1022 104.689 90.5371 104.689Z" fill="#222222"/>
<path d="M37.0664 118.766C37.0742 117.672 37.2207 116.66 37.5059 115.73C37.791 114.801 38.207 113.941 38.7539 113.152H39.6445C39.3789 113.543 39.1289 114.049 38.8945 114.67C38.6602 115.291 38.4707 115.961 38.3262 116.68C38.1816 117.398 38.1094 118.094 38.1094 118.766C38.1094 119.438 38.1816 120.135 38.3262 120.857C38.4707 121.58 38.6602 122.252 38.8945 122.873C39.1289 123.494 39.3789 124 39.6445 124.391H38.7539C38.207 123.586 37.791 122.719 37.5059 121.789C37.2207 120.859 37.0742 119.852 37.0664 118.766ZM48.8203 122.809H41.6719V119.152H48.8203V122.809ZM42.5859 122.059H47.918V119.879H42.5859V122.059ZM48.4102 113.75H41.6484V113.012H48.4102V113.75ZM50.0039 117.98H40.5234V117.23H50.0039V117.98ZM45.3516 117.453H44.4492V115.227H45.3516V117.453ZM48.7969 113.891C48.7969 114.438 48.7812 114.912 48.75 115.314C48.7188 115.717 48.6406 116.156 48.5156 116.633L47.6016 116.527C47.7266 116.059 47.8047 115.635 47.8359 115.256C47.8672 114.877 47.8828 114.422 47.8828 113.891V113.012H48.7969V113.891ZM54.2227 114.148C54.2227 114.805 54.1016 115.42 53.8594 115.994C53.6172 116.568 53.2812 117.068 52.8516 117.494C52.4219 117.92 51.918 118.246 51.3398 118.473L50.8477 117.734C51.3633 117.539 51.8184 117.262 52.2129 116.902C52.6074 116.543 52.9141 116.125 53.1328 115.648C53.3516 115.172 53.4609 114.672 53.4609 114.148V113.07H54.2227V114.148ZM54.3633 114.219C54.3633 114.68 54.4746 115.127 54.6973 115.561C54.9199 115.994 55.2266 116.375 55.6172 116.703C56.0078 117.031 56.4531 117.281 56.9531 117.453L56.4492 118.18C55.8945 117.977 55.4023 117.678 54.9727 117.283C54.543 116.889 54.209 116.428 53.9707 115.9C53.7324 115.373 53.6133 114.812 53.6133 114.219V113.07H54.3633V114.219ZM59.0273 118.871H58.1133V112.531H59.0273V118.871ZM60.5977 116.023H58.7695V115.25H60.5977V116.023ZM55.6875 119.141C56.3984 119.141 57.0117 119.215 57.5273 119.363C58.043 119.512 58.4375 119.727 58.7109 120.008C58.9844 120.289 59.1211 120.629 59.1211 121.027C59.1211 121.426 58.9844 121.768 58.7109 122.053C58.4375 122.338 58.0449 122.555 57.5332 122.703C57.0215 122.852 56.4062 122.926 55.6875 122.926C54.9766 122.926 54.3613 122.852 53.8418 122.703C53.3223 122.555 52.9238 122.338 52.6465 122.053C52.3691 121.768 52.2305 121.426 52.2305 121.027C52.2305 120.629 52.3691 120.289 52.6465 120.008C52.9238 119.727 53.3223 119.512 53.8418 119.363C54.3613 119.215 54.9766 119.141 55.6875 119.141ZM55.6875 119.879C55.1719 119.879 54.7227 119.924 54.3398 120.014C53.957 120.104 53.6641 120.236 53.4609 120.412C53.2578 120.588 53.1562 120.793 53.1562 121.027C53.1562 121.27 53.2578 121.479 53.4609 121.654C53.6641 121.83 53.9551 121.963 54.334 122.053C54.7129 122.143 55.1641 122.191 55.6875 122.199C56.2188 122.191 56.6738 122.143 57.0527 122.053C57.4316 121.963 57.7227 121.83 57.9258 121.654C58.1289 121.479 58.2305 121.27 58.2305 121.027C58.2305 120.785 58.1289 120.578 57.9258 120.406C57.7227 120.234 57.4297 120.104 57.0469 120.014C56.6641 119.924 56.2109 119.879 55.6875 119.879ZM63.416 115.73C63.7012 116.66 63.8477 117.672 63.8555 118.766C63.8477 119.852 63.7012 120.859 63.416 121.789C63.1309 122.719 62.7148 123.586 62.168 124.391H61.2773C61.543 124 61.793 123.494 62.0273 122.873C62.2617 122.252 62.4512 121.58 62.5957 120.857C62.7402 120.135 62.8125 119.438 62.8125 118.766C62.8125 118.094 62.7402 117.398 62.5957 116.68C62.4512 115.961 62.2617 115.291 62.0273 114.67C61.793 114.049 61.543 113.543 61.2773 113.152H62.168C62.7148 113.941 63.1309 114.801 63.416 115.73Z" fill="#707070"/>
<path d="M75.1777 74.1602H74.2637V66.543H75.1777V74.1602ZM75.5059 76.7266H68.4512V75.9531H75.5059V76.7266ZM69.3652 76.2109H68.4512V73.3867H69.3652V76.2109ZM69.5527 67.2695C70.0684 67.2695 70.5352 67.377 70.9531 67.5918C71.3711 67.8066 71.6973 68.1094 71.9316 68.5C72.166 68.8906 72.2832 69.332 72.2832 69.8242C72.2832 70.3242 72.166 70.7676 71.9316 71.1543C71.6973 71.541 71.3711 71.8438 70.9531 72.0625C70.5352 72.2812 70.0684 72.3906 69.5527 72.3906C69.0371 72.3906 68.5723 72.2812 68.1582 72.0625C67.7441 71.8438 67.418 71.541 67.1797 71.1543C66.9414 70.7676 66.8223 70.3242 66.8223 69.8242C66.8223 69.332 66.9414 68.8906 67.1797 68.5C67.418 68.1094 67.7441 67.8066 68.1582 67.5918C68.5723 67.377 69.0371 67.2695 69.5527 67.2695ZM69.5527 68.0781C69.209 68.0781 68.8965 68.1523 68.6152 68.3008C68.334 68.4492 68.1152 68.6562 67.959 68.9219C67.8027 69.1875 67.7246 69.4883 67.7246 69.8242C67.7246 70.1602 67.8027 70.4629 67.959 70.7324C68.1152 71.002 68.334 71.2109 68.6152 71.3594C68.8965 71.5078 69.209 71.582 69.5527 71.582C69.8965 71.582 70.207 71.5078 70.4844 71.3594C70.7617 71.2109 70.9805 71.002 71.1406 70.7324C71.3008 70.4629 71.3809 70.1602 71.3809 69.8242C71.3809 69.4883 71.3008 69.1875 71.1406 68.9219C70.9805 68.6562 70.7617 68.4492 70.4844 68.3008C70.207 68.1523 69.8965 68.0781 69.5527 68.0781ZM86.4746 72.625H76.9355V71.8633H86.4746V72.625ZM82.2324 74.7578H81.3184V72.332H82.2324V74.7578ZM85.2324 70.668H78.1777V67.0469H85.2324V70.668ZM79.0801 69.9297H84.3184V67.7734H79.0801V69.9297ZM85.4082 76.7266H78.1543V75.9531H85.4082V76.7266ZM79.0801 76.2227H78.1543V73.7266H79.0801V76.2227ZM88.4199 73.0469C88.2871 73.0469 88.1621 73.0117 88.0449 72.9414C87.9277 72.8711 87.8359 72.7773 87.7695 72.6602C87.7031 72.543 87.6699 72.418 87.6699 72.2852C87.6699 72.1523 87.7031 72.0273 87.7695 71.9102C87.8359 71.793 87.9277 71.7012 88.0449 71.6348C88.1621 71.5684 88.2871 71.5352 88.4199 71.5352C88.5527 71.5352 88.6777 71.5684 88.7949 71.6348C88.9121 71.7012 89.0039 71.793 89.0703 71.9102C89.1367 72.0273 89.1699 72.1523 89.1699 72.2852C89.1699 72.418 89.1367 72.543 89.0703 72.6602C89.0039 72.7773 88.9121 72.8711 88.7949 72.9414C88.6777 73.0117 88.5527 73.0469 88.4199 73.0469ZM93.7051 68.1484C93.7051 68.8047 93.584 69.4199 93.3418 69.9941C93.0996 70.5684 92.7637 71.0684 92.334 71.4941C91.9043 71.9199 91.4004 72.2461 90.8223 72.4727L90.3301 71.7344C90.8457 71.5391 91.3008 71.2617 91.6953 70.9023C92.0898 70.543 92.3965 70.125 92.6152 69.6484C92.834 69.1719 92.9434 68.6719 92.9434 68.1484V67.0703H93.7051V68.1484ZM93.8457 68.2188C93.8457 68.6797 93.957 69.127 94.1797 69.5605C94.4023 69.9941 94.709 70.375 95.0996 70.7031C95.4902 71.0312 95.9355 71.2812 96.4355 71.4531L95.9316 72.1797C95.377 71.9766 94.8848 71.6777 94.4551 71.2832C94.0254 70.8887 93.6914 70.4277 93.4531 69.9004C93.2148 69.373 93.0957 68.8125 93.0957 68.2188V67.0703H93.8457V68.2188ZM98.5098 72.8711H97.5957V66.5312H98.5098V72.8711ZM100.08 70.0234H98.252V69.25H100.08V70.0234ZM95.1699 73.1406C95.8809 73.1406 96.4941 73.2148 97.0098 73.3633C97.5254 73.5117 97.9199 73.7266 98.1934 74.0078C98.4668 74.2891 98.6035 74.6289 98.6035 75.0273C98.6035 75.4258 98.4668 75.7676 98.1934 76.0527C97.9199 76.3379 97.5273 76.5547 97.0156 76.7031C96.5039 76.8516 95.8887 76.9258 95.1699 76.9258C94.459 76.9258 93.8438 76.8516 93.3242 76.7031C92.8047 76.5547 92.4062 76.3379 92.1289 76.0527C91.8516 75.7676 91.7129 75.4258 91.7129 75.0273C91.7129 74.6289 91.8516 74.2891 92.1289 74.0078C92.4062 73.7266 92.8047 73.5117 93.3242 73.3633C93.8438 73.2148 94.459 73.1406 95.1699 73.1406ZM95.1699 73.8789C94.6543 73.8789 94.2051 73.9238 93.8223 74.0137C93.4395 74.1035 93.1465 74.2363 92.9434 74.4121C92.7402 74.5879 92.6387 74.793 92.6387 75.0273C92.6387 75.2695 92.7402 75.4785 92.9434 75.6543C93.1465 75.8301 93.4375 75.9629 93.8164 76.0527C94.1953 76.1426 94.6465 76.1914 95.1699 76.1992C95.7012 76.1914 96.1562 76.1426 96.5352 76.0527C96.9141 75.9629 97.2051 75.8301 97.4082 75.6543C97.6113 75.4785 97.7129 75.2695 97.7129 75.0273C97.7129 74.7852 97.6113 74.5781 97.4082 74.4062C97.2051 74.2344 96.9121 74.1035 96.5293 74.0137C96.1465 73.9238 95.6934 73.8789 95.1699 73.8789ZM108.611 69.2266H105.764V68.4883H108.611V69.2266ZM108.541 71.3945H105.682V70.6328H108.541V71.3945ZM109.373 72.8008H108.447V66.543H109.373V72.8008ZM106.15 67.3164C106.15 68.1914 105.953 68.9883 105.559 69.707C105.164 70.4258 104.602 71.041 103.871 71.5527C103.141 72.0645 102.271 72.4727 101.264 72.7773L100.877 72.0508C101.775 71.7852 102.545 71.4395 103.186 71.0137C103.826 70.5879 104.316 70.0957 104.656 69.5371C104.996 68.9785 105.166 68.375 105.166 67.7266V67.3164H106.15ZM105.787 68.0898H101.404V67.3164H105.787V68.0898ZM105.963 72.9062C106.666 72.9062 107.279 72.9863 107.803 73.1465C108.326 73.3066 108.729 73.5352 109.01 73.832C109.291 74.1289 109.432 74.4844 109.432 74.8984C109.432 75.3125 109.291 75.6699 109.01 75.9707C108.729 76.2715 108.326 76.502 107.803 76.6621C107.279 76.8223 106.666 76.9023 105.963 76.9023C105.26 76.9023 104.646 76.8223 104.123 76.6621C103.6 76.502 103.195 76.2715 102.91 75.9707C102.625 75.6699 102.482 75.3125 102.482 74.8984C102.482 74.4844 102.625 74.1289 102.91 73.832C103.195 73.5352 103.6 73.3066 104.123 73.1465C104.646 72.9863 105.26 72.9062 105.963 72.9062ZM105.963 73.6445C105.447 73.6367 104.994 73.6836 104.604 73.7852C104.213 73.8867 103.912 74.0332 103.701 74.2246C103.49 74.416 103.385 74.6406 103.385 74.8984C103.385 75.1562 103.49 75.3789 103.701 75.5664C103.912 75.7539 104.211 75.8984 104.598 76C104.984 76.1016 105.439 76.1523 105.963 76.1523C106.479 76.1523 106.928 76.1016 107.311 76C107.693 75.8984 107.99 75.7539 108.201 75.5664C108.412 75.3789 108.518 75.1562 108.518 74.8984C108.518 74.6406 108.412 74.416 108.201 74.2246C107.99 74.0332 107.693 73.8867 107.311 73.7852C106.928 73.6836 106.479 73.6367 105.963 73.6445ZM112.209 73.0469C112.076 73.0469 111.951 73.0117 111.834 72.9414C111.717 72.8711 111.625 72.7773 111.559 72.6602C111.492 72.543 111.459 72.418 111.459 72.2852C111.459 72.1523 111.492 72.0273 111.559 71.9102C111.625 71.793 111.717 71.7012 111.834 71.6348C111.951 71.5684 112.076 71.5352 112.209 71.5352C112.342 71.5352 112.467 71.5684 112.584 71.6348C112.701 71.7012 112.793 71.793 112.859 71.9102C112.926 72.0273 112.959 72.1523 112.959 72.2852C112.959 72.418 112.926 72.543 112.859 72.6602C112.793 72.7773 112.701 72.8711 112.584 72.9414C112.467 73.0117 112.342 73.0469 112.209 73.0469ZM117.494 69.332C117.494 70.082 117.367 70.8164 117.113 71.5352C116.859 72.2539 116.512 72.8906 116.07 73.4453C115.629 74 115.135 74.4258 114.588 74.7227L114.002 73.9844C114.51 73.7344 114.971 73.3633 115.385 72.8711C115.799 72.3789 116.129 71.8203 116.375 71.1953C116.621 70.5703 116.744 69.9492 116.744 69.332V67.4336H117.494V69.332ZM117.646 69.332C117.646 69.9258 117.768 70.5215 118.01 71.1191C118.252 71.7168 118.58 72.25 118.994 72.7188C119.408 73.1875 119.857 73.543 120.342 73.7852L119.779 74.5234C119.24 74.2344 118.752 73.8223 118.314 73.2871C117.877 72.752 117.533 72.1387 117.283 71.4473C117.033 70.7559 116.908 70.0508 116.908 69.332V67.4336H117.646V69.332ZM122.217 76.9492H121.303V66.5312H122.217V76.9492ZM123.963 71.5586H122.006V70.7617H123.963V71.5586ZM125.967 68.793H128.873V67.1289H129.775V71.9922H125.053V67.1289H125.967V68.793ZM128.873 71.2422V69.5312H125.967V71.2422H128.873ZM132.518 69.9531H129.518V69.1797H132.518V69.9531ZM133.162 72.5781H132.236V66.5312H133.162V72.5781ZM133.162 76.8086H126.354V73.0938H133.162V76.8086ZM127.268 76.0586H132.26V73.832H127.268V76.0586ZM140.135 68.1133H135.482V67.3398H140.135V68.1133ZM137.99 72.2617H137.076V69.6484H137.99V72.2617ZM140.674 67.8906C140.666 68.4609 140.648 68.9688 140.621 69.4141C140.594 69.8594 140.521 70.3789 140.404 70.9727L139.479 70.9023C139.604 70.293 139.682 69.7734 139.713 69.3438C139.744 68.9141 139.764 68.4297 139.771 67.8906V67.3398H140.674V67.8906ZM143.064 74.3711H142.127V66.5312H143.064V74.3711ZM144.588 70.7148H142.643V69.9297H144.588V70.7148ZM143.404 76.7266H136.443V75.9531H143.404V76.7266ZM137.369 76.1992H136.443V73.668H137.369V76.1992ZM134.838 71.9453C136.166 71.9375 137.359 71.9121 138.418 71.8691C139.477 71.8262 140.479 71.7383 141.424 71.6055L141.482 72.2852C140.514 72.4492 139.479 72.5605 138.377 72.6191C137.275 72.6777 136.127 72.707 134.932 72.707L134.838 71.9453Z" fill="#222222"/>
<path d="M84.6855 148.18H83.7832V146.234H84.6855V148.18ZM88.9863 148.484H79.4941V147.723H88.9863V148.484ZM84.2402 149.34C84.9902 149.34 85.6328 149.408 86.168 149.545C86.7031 149.682 87.1133 149.885 87.3984 150.154C87.6836 150.424 87.8262 150.75 87.8262 151.133C87.8262 151.516 87.6836 151.84 87.3984 152.105C87.1133 152.371 86.7031 152.574 86.168 152.715C85.6328 152.855 84.9902 152.926 84.2402 152.926C83.4902 152.926 82.8457 152.855 82.3066 152.715C81.7676 152.574 81.3555 152.371 81.0703 152.105C80.7852 151.84 80.6426 151.516 80.6426 151.133C80.6426 150.75 80.7852 150.424 81.0703 150.154C81.3555 149.885 81.7676 149.682 82.3066 149.545C82.8457 149.408 83.4902 149.34 84.2402 149.34ZM84.2402 150.066C83.6777 150.066 83.1973 150.107 82.7988 150.189C82.4004 150.271 82.0977 150.393 81.8906 150.553C81.6836 150.713 81.5801 150.906 81.5801 151.133C81.5801 151.359 81.6836 151.553 81.8906 151.713C82.0977 151.873 82.4023 151.996 82.8047 152.082C83.207 152.168 83.6855 152.211 84.2402 152.211C84.7949 152.211 85.2715 152.168 85.6699 152.082C86.0684 151.996 86.373 151.873 86.584 151.713C86.7949 151.553 86.9004 151.359 86.9004 151.133C86.9004 150.906 86.7949 150.713 86.584 150.553C86.373 150.393 86.0684 150.271 85.6699 150.189C85.2715 150.107 84.7949 150.066 84.2402 150.066ZM84.4629 143.703C84.4629 144.242 84.2754 144.727 83.9004 145.156C83.5254 145.586 83.0254 145.936 82.4004 146.205C81.7754 146.475 81.0957 146.656 80.3613 146.75L80.0215 146.023C80.6543 145.953 81.248 145.811 81.8027 145.596C82.3574 145.381 82.8027 145.107 83.1387 144.775C83.4746 144.443 83.6426 144.086 83.6426 143.703V143.387H84.4629V143.703ZM84.8379 143.703C84.8379 144.086 85.0078 144.441 85.3477 144.77C85.6875 145.098 86.1348 145.371 86.6895 145.59C87.2441 145.809 87.834 145.953 88.459 146.023L88.1191 146.75C87.3926 146.656 86.7168 146.475 86.0918 146.205C85.4668 145.936 84.9648 145.586 84.5859 145.156C84.207 144.727 84.0176 144.242 84.0176 143.703V143.387H84.8379V143.703ZM88.1426 143.773H80.3613V143.023H88.1426V143.773ZM98.0098 148.59H97.0957V142.531H98.0098V148.59ZM99.5801 145.988H97.6113V145.203H99.5801V145.988ZM92.3379 150.16H97.0957V149.047H98.0098V152.809H91.4238V149.047H92.3379V150.16ZM97.0957 152.07V150.887H92.3379V152.07H97.0957ZM96.0996 144.371H89.8887V143.609H96.0996V144.371ZM92.9941 144.852C93.4941 144.852 93.9316 144.926 94.3066 145.074C94.6816 145.223 94.9746 145.436 95.1855 145.713C95.3965 145.99 95.502 146.312 95.502 146.68C95.502 147.047 95.3965 147.367 95.1855 147.641C94.9746 147.914 94.6816 148.127 94.3066 148.279C93.9316 148.432 93.4941 148.508 92.9941 148.508C92.4941 148.508 92.0547 148.432 91.6758 148.279C91.2969 148.127 91.0039 147.914 90.7969 147.641C90.5898 147.367 90.4863 147.047 90.4863 146.68C90.4863 146.312 90.5898 145.99 90.7969 145.713C91.0039 145.436 91.2969 145.223 91.6758 145.074C92.0547 144.926 92.4941 144.852 92.9941 144.852ZM92.9941 145.566C92.6738 145.559 92.3887 145.602 92.1387 145.695C91.8887 145.789 91.6973 145.922 91.5645 146.094C91.4316 146.266 91.3652 146.461 91.3652 146.68C91.3652 146.898 91.4316 147.094 91.5645 147.266C91.6973 147.438 91.8887 147.57 92.1387 147.664C92.3887 147.758 92.6738 147.805 92.9941 147.805C93.3145 147.805 93.5996 147.758 93.8496 147.664C94.0996 147.57 94.293 147.438 94.4297 147.266C94.5664 147.094 94.6348 146.898 94.6348 146.68C94.6348 146.453 94.5645 146.256 94.4238 146.088C94.2832 145.92 94.0898 145.789 93.8438 145.695C93.5977 145.602 93.3145 145.559 92.9941 145.566ZM93.4512 144.02H92.5371V142.438H93.4512V144.02ZM108.826 147.934H107.924V142.531H108.826V147.934ZM108.838 150.957H102.99V152.41H102.088V150.242H107.924V149.199H102.064V148.461H108.838V150.957ZM109.213 152.832H102.088V152.082H109.213V152.832ZM103.764 143.633C103.764 144.266 103.637 144.863 103.383 145.426C103.129 145.988 102.777 146.477 102.328 146.891C101.879 147.305 101.365 147.617 100.787 147.828L100.307 147.102C100.83 146.914 101.295 146.646 101.701 146.299C102.107 145.951 102.424 145.545 102.65 145.08C102.877 144.615 102.99 144.133 102.99 143.633V142.836H103.764V143.633ZM103.928 143.633C103.928 144.117 104.041 144.578 104.268 145.016C104.494 145.453 104.809 145.836 105.211 146.164C105.613 146.492 106.072 146.742 106.588 146.914L106.131 147.629C105.553 147.426 105.039 147.129 104.59 146.738C104.141 146.348 103.789 145.885 103.535 145.35C103.281 144.814 103.154 144.242 103.154 143.633V142.836H103.928V143.633ZM119.244 148.848H118.318V142.531H119.244V148.848ZM118.729 146.469H116.549V145.707H118.729V146.469ZM119.244 152.809H112.436V149.41H119.244V152.809ZM113.35 152.059H118.342V150.148H113.35V152.059ZM116.701 144.383H110.619V143.633H116.701V144.383ZM113.654 144.922C114.123 144.922 114.541 145 114.908 145.156C115.275 145.312 115.562 145.531 115.77 145.812C115.977 146.094 116.08 146.414 116.08 146.773C116.08 147.141 115.977 147.465 115.77 147.746C115.562 148.027 115.275 148.246 114.908 148.402C114.541 148.559 114.123 148.637 113.654 148.637C113.186 148.637 112.77 148.559 112.406 148.402C112.043 148.246 111.758 148.027 111.551 147.746C111.344 147.465 111.24 147.141 111.24 146.773C111.24 146.414 111.344 146.094 111.551 145.812C111.758 145.531 112.043 145.312 112.406 145.156C112.77 145 113.186 144.922 113.654 144.922ZM113.654 145.637C113.357 145.637 113.094 145.684 112.863 145.777C112.633 145.871 112.451 146.006 112.318 146.182C112.186 146.357 112.119 146.555 112.119 146.773C112.119 147 112.184 147.199 112.312 147.371C112.441 147.543 112.623 147.678 112.857 147.775C113.092 147.873 113.357 147.926 113.654 147.934C113.959 147.926 114.227 147.873 114.457 147.775C114.688 147.678 114.867 147.543 114.996 147.371C115.125 147.199 115.189 147 115.189 146.773C115.189 146.555 115.125 146.357 114.996 146.182C114.867 146.006 114.686 145.871 114.451 145.777C114.217 145.684 113.951 145.637 113.654 145.637ZM114.111 144.172H113.209V142.438H114.111V144.172ZM130.482 148.426H120.979V147.688H130.482V148.426ZM126.17 148.004H125.279V146.012H126.17V148.004ZM129.369 146.469H122.186V145.719H129.369V146.469ZM129.299 143.762H123.088V146.176H122.186V143.023H129.299V143.762ZM125.725 149.188C126.467 149.188 127.107 149.26 127.646 149.404C128.186 149.549 128.598 149.762 128.883 150.043C129.168 150.324 129.311 150.664 129.311 151.062C129.311 151.461 129.168 151.801 128.883 152.082C128.598 152.363 128.188 152.576 127.652 152.721C127.117 152.865 126.475 152.941 125.725 152.949C124.975 152.941 124.33 152.865 123.791 152.721C123.252 152.576 122.84 152.363 122.555 152.082C122.27 151.801 122.127 151.461 122.127 151.062C122.127 150.664 122.27 150.324 122.555 150.043C122.84 149.762 123.252 149.549 123.791 149.404C124.33 149.26 124.975 149.188 125.725 149.188ZM125.725 149.914C125.17 149.914 124.693 149.959 124.295 150.049C123.896 150.139 123.592 150.27 123.381 150.441C123.17 150.613 123.064 150.82 123.064 151.062C123.064 151.305 123.17 151.512 123.381 151.684C123.592 151.855 123.896 151.986 124.295 152.076C124.693 152.166 125.17 152.211 125.725 152.211C126.279 152.211 126.756 152.166 127.154 152.076C127.553 151.986 127.857 151.854 128.068 151.678C128.279 151.502 128.385 151.297 128.385 151.062C128.385 150.82 128.279 150.613 128.068 150.441C127.857 150.27 127.551 150.139 127.148 150.049C126.746 149.959 126.271 149.914 125.725 149.914Z" fill="#222222"/>
<path d="M188.891 70.0117H186.512V69.25H188.891V70.0117ZM189.535 72.7422H188.609V66.5312H189.535V72.7422ZM186.078 73.0703C186.805 73.0703 187.43 73.1465 187.953 73.2988C188.477 73.4512 188.877 73.6719 189.154 73.9609C189.432 74.25 189.57 74.5977 189.57 75.0039C189.57 75.4102 189.432 75.7578 189.154 76.0469C188.877 76.3359 188.477 76.5566 187.953 76.709C187.43 76.8613 186.805 76.9414 186.078 76.9492C185.359 76.9414 184.738 76.8613 184.215 76.709C183.691 76.5566 183.289 76.3359 183.008 76.0469C182.727 75.7578 182.586 75.4102 182.586 75.0039C182.586 74.5977 182.727 74.25 183.008 73.9609C183.289 73.6719 183.691 73.4512 184.215 73.2988C184.738 73.1465 185.359 73.0703 186.078 73.0703ZM186.078 73.7852C185.555 73.7852 185.098 73.834 184.707 73.9316C184.316 74.0293 184.018 74.1699 183.811 74.3535C183.604 74.5371 183.5 74.7539 183.5 75.0039C183.5 75.2461 183.604 75.459 183.811 75.6426C184.018 75.8262 184.316 75.9668 184.707 76.0645C185.098 76.1621 185.555 76.2109 186.078 76.2109C186.609 76.2109 187.068 76.1621 187.455 76.0645C187.842 75.9668 188.139 75.8262 188.346 75.6426C188.553 75.459 188.656 75.2461 188.656 75.0039C188.656 74.7539 188.553 74.5371 188.346 74.3535C188.139 74.1699 187.842 74.0293 187.455 73.9316C187.068 73.834 186.609 73.7852 186.078 73.7852ZM184.355 68.4531C184.355 69.0781 184.23 69.6699 183.98 70.2285C183.73 70.7871 183.385 71.2754 182.943 71.6934C182.502 72.1113 181.996 72.4297 181.426 72.6484L180.945 71.9102C181.461 71.7227 181.92 71.4512 182.322 71.0957C182.725 70.7402 183.037 70.332 183.26 69.8711C183.482 69.4102 183.594 68.9375 183.594 68.4531V67.5859H184.355V68.4531ZM184.52 68.4414C184.52 68.8867 184.627 69.3203 184.842 69.7422C185.057 70.1641 185.359 70.5371 185.75 70.8613C186.141 71.1855 186.586 71.4375 187.086 71.6172L186.605 72.3555C186.043 72.1523 185.549 71.8535 185.123 71.459C184.697 71.0645 184.365 70.6055 184.127 70.082C183.889 69.5586 183.77 69.0117 183.77 68.4414V67.5859H184.52V68.4414ZM186.852 68.0664H181.238V67.293H186.852V68.0664ZM200.797 72.625H191.258V71.8633H200.797V72.625ZM196.555 74.7578H195.641V72.332H196.555V74.7578ZM199.555 70.668H192.5V67.0469H199.555V70.668ZM193.402 69.9297H198.641V67.7734H193.402V69.9297ZM199.73 76.7266H192.477V75.9531H199.73V76.7266ZM193.402 76.2227H192.477V73.7266H193.402V76.2227ZM205.297 72.7656C205.305 71.6719 205.451 70.6602 205.736 69.7305C206.021 68.8008 206.438 67.9414 206.984 67.1523H207.875C207.609 67.543 207.359 68.0488 207.125 68.6699C206.891 69.291 206.701 69.9609 206.557 70.6797C206.412 71.3984 206.34 72.0938 206.34 72.7656C206.34 73.4375 206.412 74.1348 206.557 74.8574C206.701 75.5801 206.891 76.252 207.125 76.873C207.359 77.4941 207.609 78 207.875 78.3906H206.984C206.438 77.5859 206.021 76.7188 205.736 75.7891C205.451 74.8594 205.305 73.8516 205.297 72.7656ZM212.082 68.1484C212.082 68.8047 211.961 69.4199 211.719 69.9941C211.477 70.5684 211.141 71.0684 210.711 71.4941C210.281 71.9199 209.777 72.2461 209.199 72.4727L208.707 71.7344C209.223 71.5391 209.678 71.2617 210.072 70.9023C210.467 70.543 210.773 70.125 210.992 69.6484C211.211 69.1719 211.32 68.6719 211.32 68.1484V67.0703H212.082V68.1484ZM212.223 68.2188C212.223 68.6797 212.334 69.127 212.557 69.5605C212.779 69.9941 213.086 70.375 213.477 70.7031C213.867 71.0312 214.312 71.2812 214.812 71.4531L214.309 72.1797C213.754 71.9766 213.262 71.6777 212.832 71.2832C212.402 70.8887 212.068 70.4277 211.83 69.9004C211.592 69.373 211.473 68.8125 211.473 68.2188V67.0703H212.223V68.2188ZM216.887 72.8711H215.973V66.5312H216.887V72.8711ZM218.457 70.0234H216.629V69.25H218.457V70.0234ZM213.547 73.1406C214.258 73.1406 214.871 73.2148 215.387 73.3633C215.902 73.5117 216.297 73.7266 216.57 74.0078C216.844 74.2891 216.98 74.6289 216.98 75.0273C216.98 75.4258 216.844 75.7676 216.57 76.0527C216.297 76.3379 215.904 76.5547 215.393 76.7031C214.881 76.8516 214.266 76.9258 213.547 76.9258C212.836 76.9258 212.221 76.8516 211.701 76.7031C211.182 76.5547 210.783 76.3379 210.506 76.0527C210.229 75.7676 210.09 75.4258 210.09 75.0273C210.09 74.6289 210.229 74.2891 210.506 74.0078C210.783 73.7266 211.182 73.5117 211.701 73.3633C212.221 73.2148 212.836 73.1406 213.547 73.1406ZM213.547 73.8789C213.031 73.8789 212.582 73.9238 212.199 74.0137C211.816 74.1035 211.523 74.2363 211.32 74.4121C211.117 74.5879 211.016 74.793 211.016 75.0273C211.016 75.2695 211.117 75.4785 211.32 75.6543C211.523 75.8301 211.814 75.9629 212.193 76.0527C212.572 76.1426 213.023 76.1914 213.547 76.1992C214.078 76.1914 214.533 76.1426 214.912 76.0527C215.291 75.9629 215.582 75.8301 215.785 75.6543C215.988 75.4785 216.09 75.2695 216.09 75.0273C216.09 74.7852 215.988 74.5781 215.785 74.4062C215.582 74.2344 215.289 74.1035 214.906 74.0137C214.523 73.9238 214.07 73.8789 213.547 73.8789ZM227.715 72.8359H226.801V66.543H227.715V72.8359ZM224.234 73.0703C224.961 73.0703 225.588 73.1465 226.115 73.2988C226.643 73.4512 227.047 73.6738 227.328 73.9668C227.609 74.2598 227.75 74.6133 227.75 75.0273C227.75 75.4336 227.609 75.7852 227.328 76.082C227.047 76.3789 226.643 76.6055 226.115 76.7617C225.588 76.918 224.961 76.9961 224.234 76.9961C223.508 76.9961 222.881 76.918 222.354 76.7617C221.826 76.6055 221.422 76.3789 221.141 76.082C220.859 75.7852 220.719 75.4336 220.719 75.0273C220.719 74.6133 220.859 74.2598 221.141 73.9668C221.422 73.6738 221.826 73.4512 222.354 73.2988C222.881 73.1465 223.508 73.0703 224.234 73.0703ZM224.234 73.8086C223.703 73.8086 223.242 73.8574 222.852 73.9551C222.461 74.0527 222.162 74.1914 221.955 74.3711C221.748 74.5508 221.645 74.7695 221.645 75.0273C221.645 75.2852 221.748 75.5059 221.955 75.6895C222.162 75.873 222.461 76.0137 222.852 76.1113C223.242 76.209 223.703 76.2578 224.234 76.2578C224.766 76.2578 225.227 76.209 225.617 76.1113C226.008 76.0137 226.309 75.8711 226.52 75.6836C226.73 75.4961 226.836 75.2773 226.836 75.0273C226.836 74.7773 226.73 74.5605 226.52 74.377C226.309 74.1934 226.008 74.0527 225.617 73.9551C225.227 73.8574 224.766 73.8086 224.234 73.8086ZM222.699 68.4531C222.699 69.0703 222.576 69.6562 222.33 70.2109C222.084 70.7656 221.738 71.25 221.293 71.6641C220.848 72.0781 220.336 72.3906 219.758 72.6016L219.277 71.875C219.793 71.6875 220.254 71.4199 220.66 71.0723C221.066 70.7246 221.381 70.3242 221.604 69.8711C221.826 69.418 221.938 68.9453 221.938 68.4531V67.5859H222.699V68.4531ZM222.863 68.4531C222.863 68.9062 222.977 69.3418 223.203 69.7598C223.43 70.1777 223.746 70.5449 224.152 70.8613C224.559 71.1777 225.02 71.4219 225.535 71.5938L225.066 72.3203C224.488 72.125 223.975 71.8379 223.525 71.459C223.076 71.0801 222.727 70.6309 222.477 70.1113C222.227 69.5918 222.102 69.0391 222.102 68.4531V67.5859H222.863V68.4531ZM225.266 68.1133H219.5V67.3516H225.266V68.1133ZM230.762 71.2188C231.887 71.2188 232.783 71.1973 233.451 71.1543C234.119 71.1113 234.785 71.0312 235.449 70.9141L235.555 71.6641C234.859 71.7812 234.166 71.8613 233.475 71.9043C232.783 71.9473 231.879 71.9688 230.762 71.9688H229.977V71.2188H230.762ZM234.77 67.8672H230.891V71.582H229.977V67.1172H234.77V67.8672ZM234.57 69.8828H230.586V69.1328H234.57V69.8828ZM237.629 72.3086H236.715V66.5312H237.629V72.3086ZM239.199 69.7656H237.371V68.9805H239.199V69.7656ZM231.945 74.0195H236.715V72.7773H237.629V76.8086H231.031V72.7773H231.945V74.0195ZM236.715 76.0586V74.7461H231.945V76.0586H236.715ZM242.018 69.7305C242.303 70.6602 242.449 71.6719 242.457 72.7656C242.449 73.8516 242.303 74.8594 242.018 75.7891C241.732 76.7188 241.316 77.5859 240.77 78.3906H239.879C240.145 78 240.395 77.4941 240.629 76.873C240.863 76.252 241.053 75.5801 241.197 74.8574C241.342 74.1348 241.414 73.4375 241.414 72.7656C241.414 72.0938 241.342 71.3984 241.197 70.6797C241.053 69.9609 240.863 69.291 240.629 68.6699C240.395 68.0488 240.145 67.543 239.879 67.1523H240.77C241.316 67.9414 241.732 68.8008 242.018 69.7305Z" fill="#222222"/>
<path d="M200.27 152.949H199.344V142.531H200.27V152.949ZM195.371 145.93C195.371 146.648 195.242 147.342 194.984 148.01C194.727 148.678 194.371 149.266 193.918 149.773C193.465 150.281 192.961 150.668 192.406 150.934L191.891 150.219C192.406 149.984 192.871 149.645 193.285 149.199C193.699 148.754 194.025 148.246 194.264 147.676C194.502 147.105 194.621 146.523 194.621 145.93V144.992H195.371V145.93ZM195.523 145.93C195.523 146.5 195.646 147.059 195.893 147.605C196.139 148.152 196.475 148.637 196.9 149.059C197.326 149.48 197.797 149.805 198.312 150.031L197.797 150.746C197.234 150.496 196.725 150.127 196.268 149.639C195.811 149.15 195.449 148.584 195.184 147.939C194.918 147.295 194.785 146.625 194.785 145.93V144.992H195.523V145.93ZM197.949 145.098H192.172V144.348H197.949V145.098ZM195.523 144.77H194.609V142.73H195.523V144.77ZM207.289 144.441H202.531V143.691H207.289V144.441ZM205.098 150.195H204.195V146.668H205.098V150.195ZM207.828 144.23C207.82 144.723 207.812 145.131 207.805 145.455C207.797 145.779 207.771 146.197 207.729 146.709C207.686 147.221 207.617 147.773 207.523 148.367L206.598 148.285C206.73 147.457 206.814 146.732 206.85 146.111C206.885 145.49 206.902 144.863 206.902 144.23V143.691H207.828V144.23ZM210.09 152.949H209.176V142.531H210.09V152.949ZM211.777 147.688H209.844V146.891H211.777V147.688ZM201.945 149.891C203.211 149.883 204.385 149.857 205.467 149.814C206.549 149.771 207.566 149.695 208.52 149.586L208.566 150.277C207.582 150.426 206.539 150.527 205.438 150.582C204.336 150.637 203.211 150.66 202.062 150.652L201.945 149.891ZM220.391 144.992H217.391V144.242H220.391V144.992ZM220.391 147.148H217.391V146.387H220.391V147.148ZM213.863 144.852H216.77V143.176H217.672V148.074H212.949V143.176H213.863V144.852ZM216.77 147.324V145.59H213.863V147.324H216.77ZM221.059 148.848H220.133V142.531H221.059V148.848ZM217.602 149.047C218.328 149.047 218.953 149.125 219.477 149.281C220 149.438 220.4 149.66 220.678 149.949C220.955 150.238 221.094 150.59 221.094 151.004C221.094 151.402 220.955 151.746 220.678 152.035C220.4 152.324 219.998 152.545 219.471 152.697C218.943 152.85 218.32 152.926 217.602 152.926C216.883 152.926 216.262 152.85 215.738 152.697C215.215 152.545 214.812 152.324 214.531 152.035C214.25 151.746 214.109 151.402 214.109 151.004C214.109 150.59 214.25 150.238 214.531 149.949C214.812 149.66 215.215 149.438 215.738 149.281C216.262 149.125 216.883 149.047 217.602 149.047ZM217.602 149.773C217.07 149.773 216.611 149.822 216.225 149.92C215.838 150.018 215.541 150.158 215.334 150.342C215.127 150.525 215.023 150.746 215.023 151.004C215.023 151.246 215.127 151.457 215.334 151.637C215.541 151.816 215.84 151.955 216.23 152.053C216.621 152.15 217.078 152.199 217.602 152.199C218.133 152.199 218.592 152.15 218.979 152.053C219.365 151.955 219.662 151.816 219.869 151.637C220.076 151.457 220.18 151.246 220.18 151.004C220.18 150.746 220.076 150.525 219.869 150.342C219.662 150.158 219.365 150.018 218.979 149.92C218.592 149.822 218.133 149.773 217.602 149.773ZM226.719 150.09H225.793V147.77H226.719V150.09ZM231.383 150.453H230.457V142.543H231.383V150.453ZM231.641 152.727H224.234V151.953H231.641V152.727ZM225.16 152.176H224.234V149.68H225.16V152.176ZM222.734 147.371C224.164 147.363 225.408 147.342 226.467 147.307C227.525 147.271 228.543 147.191 229.52 147.066L229.578 147.734C228.562 147.898 227.492 148.006 226.367 148.057C225.242 148.107 224.074 148.129 222.863 148.121L222.734 147.371ZM230.703 149.375H228.301V148.707H230.703V149.375ZM226.156 142.965C226.664 142.965 227.111 143.039 227.498 143.188C227.885 143.336 228.188 143.549 228.406 143.826C228.625 144.104 228.734 144.422 228.734 144.781C228.734 145.148 228.625 145.467 228.406 145.736C228.188 146.006 227.885 146.215 227.498 146.363C227.111 146.512 226.664 146.586 226.156 146.586C225.648 146.586 225.199 146.512 224.809 146.363C224.418 146.215 224.115 146.006 223.9 145.736C223.686 145.467 223.578 145.148 223.578 144.781C223.578 144.422 223.686 144.104 223.9 143.826C224.115 143.549 224.418 143.336 224.809 143.188C225.199 143.039 225.648 142.965 226.156 142.965ZM226.156 143.668C225.82 143.66 225.523 143.703 225.266 143.797C225.008 143.891 224.809 144.023 224.668 144.195C224.527 144.367 224.457 144.562 224.457 144.781C224.457 145 224.527 145.195 224.668 145.367C224.809 145.539 225.008 145.672 225.266 145.766C225.523 145.859 225.82 145.906 226.156 145.906C226.484 145.906 226.777 145.859 227.035 145.766C227.293 145.672 227.494 145.539 227.639 145.367C227.783 145.195 227.855 145 227.855 144.781C227.855 144.562 227.781 144.367 227.633 144.195C227.484 144.023 227.283 143.891 227.029 143.797C226.775 143.703 226.484 143.66 226.156 143.668Z" fill="#222222"/>
<path d="M253.132 104.471H251.628V102.475H253.132V104.471ZM252.701 97.293C252.701 97.9264 252.501 98.5029 252.1 99.0225C251.703 99.542 251.138 99.9727 250.404 100.314C249.675 100.652 248.823 100.875 247.848 100.984L247.308 99.7949C248.123 99.7129 248.837 99.5465 249.447 99.2959C250.062 99.0407 250.534 98.7399 250.862 98.3936C251.19 98.0426 251.354 97.6758 251.354 97.293V96.9238H252.701V97.293ZM253.412 97.293C253.412 97.6758 253.576 98.0426 253.904 98.3936C254.237 98.7445 254.713 99.0452 255.333 99.2959C255.953 99.5465 256.673 99.7129 257.493 99.7949L256.939 100.984C255.969 100.875 255.114 100.652 254.376 100.314C253.638 99.9727 253.066 99.542 252.66 99.0225C252.255 98.5029 252.052 97.9264 252.052 97.293V96.9238H253.412V97.293ZM257.008 97.5459H247.786V96.3291H257.008V97.5459ZM258.033 102.81H246.768V101.586H258.033V102.81ZM256.646 108.203H255.121V105.366H248.012V104.149H256.646V108.203ZM268.506 100.376H265.498V99.1387H268.506V100.376ZM269.21 104.901H267.692V95.8711H269.21V104.901ZM269.524 107.984H261.103V106.74H269.524V107.984ZM262.627 107.438H261.103V104.102H262.627V107.438ZM263.099 98.3184C263.099 99.0931 262.964 99.8223 262.695 100.506C262.426 101.189 262.03 101.789 261.506 102.304C260.986 102.814 260.357 103.199 259.619 103.459L258.833 102.229C259.471 102.019 260.018 101.711 260.474 101.306C260.929 100.9 261.273 100.442 261.506 99.9316C261.738 99.4167 261.854 98.8789 261.854 98.3184V97.4502H263.099V98.3184ZM263.399 98.332C263.399 98.8379 263.511 99.3301 263.734 99.8086C263.958 100.287 264.288 100.718 264.726 101.101C265.163 101.483 265.689 101.777 266.305 101.982L265.546 103.192C264.826 102.946 264.213 102.579 263.707 102.092C263.201 101.6 262.816 101.03 262.552 100.383C262.292 99.7357 262.162 99.0521 262.162 98.332V97.4502H263.399V98.332ZM265.963 97.9902H259.277V96.7598H265.963V97.9902ZM280.25 98.8105H276.545V97.5664H280.25V98.8105ZM280.25 101.518H276.545V100.294H280.25V101.518ZM281.31 108.203H279.792V104.956H272.888V103.746H281.31V108.203ZM281.31 103.151H279.792V95.8574H281.31V103.151ZM274.392 96.5342C274.998 96.5342 275.547 96.6618 276.039 96.917C276.536 97.1722 276.925 97.5299 277.208 97.9902C277.491 98.446 277.632 98.9609 277.632 99.5352C277.632 100.118 277.491 100.64 277.208 101.101C276.925 101.556 276.536 101.914 276.039 102.174C275.547 102.434 274.998 102.563 274.392 102.563C273.776 102.563 273.22 102.434 272.724 102.174C272.227 101.914 271.837 101.556 271.555 101.101C271.272 100.64 271.131 100.118 271.131 99.5352C271.131 98.9609 271.272 98.446 271.555 97.9902C271.837 97.5299 272.227 97.1722 272.724 96.917C273.22 96.6618 273.776 96.5342 274.392 96.5342ZM274.392 97.8262C274.041 97.8262 273.726 97.8968 273.448 98.0381C273.175 98.1748 272.961 98.373 272.806 98.6328C272.651 98.888 272.573 99.1888 272.573 99.5352C272.573 99.8861 272.651 100.194 272.806 100.458C272.961 100.722 273.175 100.925 273.448 101.066C273.726 101.208 274.041 101.278 274.392 101.278C274.724 101.278 275.027 101.205 275.301 101.06C275.574 100.914 275.788 100.709 275.943 100.444C276.098 100.18 276.176 99.877 276.176 99.5352C276.176 99.1934 276.098 98.8926 275.943 98.6328C275.788 98.373 275.574 98.1748 275.301 98.0381C275.027 97.8968 274.724 97.8262 274.392 97.8262Z" fill="#222222"/>
<path d="M237.217 118.766C237.225 117.672 237.371 116.66 237.656 115.73C237.941 114.801 238.357 113.941 238.904 113.152H239.795C239.529 113.543 239.279 114.049 239.045 114.67C238.811 115.291 238.621 115.961 238.477 116.68C238.332 117.398 238.26 118.094 238.26 118.766C238.26 119.438 238.332 120.135 238.477 120.857C238.621 121.58 238.811 122.252 239.045 122.873C239.279 123.494 239.529 124 239.795 124.391H238.904C238.357 123.586 237.941 122.719 237.656 121.789C237.371 120.859 237.225 119.852 237.217 118.766ZM243.967 122.117C243.412 122.117 242.914 122.023 242.473 121.836C242.031 121.648 241.684 121.385 241.43 121.045C241.176 120.705 241.037 120.312 241.014 119.867H242.08C242.104 120.125 242.199 120.354 242.367 120.553C242.535 120.752 242.758 120.906 243.035 121.016C243.312 121.125 243.619 121.18 243.955 121.18C244.322 121.18 244.654 121.115 244.951 120.986C245.248 120.857 245.479 120.682 245.643 120.459C245.807 120.236 245.889 119.98 245.889 119.691C245.889 119.379 245.809 119.104 245.648 118.865C245.488 118.627 245.254 118.441 244.945 118.309C244.637 118.176 244.264 118.109 243.826 118.109H243.135V117.184H243.826C244.17 117.184 244.475 117.123 244.74 117.002C245.006 116.881 245.211 116.711 245.355 116.492C245.5 116.273 245.572 116.02 245.572 115.73C245.572 115.449 245.508 115.201 245.379 114.986C245.25 114.771 245.066 114.605 244.828 114.488C244.59 114.371 244.311 114.312 243.99 114.312C243.686 114.312 243.4 114.367 243.135 114.477C242.869 114.586 242.652 114.74 242.484 114.939C242.316 115.139 242.225 115.375 242.209 115.648H241.189C241.213 115.211 241.352 114.82 241.605 114.477C241.859 114.133 242.197 113.867 242.619 113.68C243.041 113.492 243.502 113.398 244.002 113.398C244.525 113.398 244.984 113.5 245.379 113.703C245.773 113.906 246.076 114.182 246.287 114.529C246.498 114.877 246.6 115.258 246.592 115.672C246.6 115.984 246.545 116.271 246.428 116.533C246.311 116.795 246.143 117.016 245.924 117.195C245.705 117.375 245.447 117.508 245.15 117.594V117.652C245.518 117.707 245.834 117.828 246.1 118.016C246.365 118.203 246.57 118.439 246.715 118.725C246.859 119.01 246.928 119.332 246.92 119.691C246.928 120.145 246.803 120.557 246.545 120.928C246.287 121.299 245.932 121.59 245.479 121.801C245.025 122.012 244.521 122.117 243.967 122.117ZM256.061 116.246H253.037V115.473H256.061V116.246ZM256.705 120.254H255.779V112.543H256.705V120.254ZM256.939 122.727H249.967V121.953H256.939V122.727ZM250.893 122.328H249.967V119.492H250.893V122.328ZM249.51 115.086H252.416V113.234H253.318V118.473H248.596V113.234H249.51V115.086ZM252.416 117.711V115.812H249.51V117.711H252.416ZM263.631 119.293H262.729V117.711H263.631V119.293ZM267.932 117.887H258.451V117.172H267.932V117.887ZM263.631 113.738H262.729V112.473H263.631V113.738ZM263.49 113.984C263.49 114.508 263.299 114.963 262.916 115.35C262.533 115.736 262.021 116.039 261.381 116.258C260.74 116.477 260.021 116.621 259.225 116.691L258.955 115.988C259.643 115.941 260.27 115.832 260.836 115.66C261.402 115.488 261.852 115.258 262.184 114.969C262.516 114.68 262.682 114.352 262.682 113.984V113.832H263.49V113.984ZM263.689 113.984C263.689 114.352 263.855 114.68 264.188 114.969C264.52 115.258 264.969 115.488 265.535 115.66C266.102 115.832 266.729 115.941 267.416 115.988L267.135 116.691C266.346 116.621 265.631 116.477 264.99 116.258C264.35 116.039 263.838 115.736 263.455 115.35C263.072 114.963 262.881 114.508 262.881 113.984V113.832H263.689V113.984ZM266.971 114.172H259.424V113.445H266.971V114.172ZM266.713 121.109H260.525V122.387H259.611V120.453H265.811V119.551H259.588V118.859H266.713V121.109ZM267.029 122.832H259.611V122.129H267.029V122.832ZM276.58 113.973H270.006V113.211H276.58V113.973ZM278.303 118.449H268.811V117.688H278.303V118.449ZM274.002 122.973H273.076V118.191H274.002V122.973ZM277.049 114.125C277.049 114.617 277.043 115.043 277.031 115.402C277.02 115.762 276.984 116.176 276.926 116.645C276.867 117.113 276.775 117.621 276.65 118.168L275.736 118.051C275.861 117.527 275.953 117.037 276.012 116.58C276.07 116.123 276.105 115.719 276.117 115.367C276.129 115.016 276.135 114.602 276.135 114.125V113.211H277.049V114.125ZM281.344 115.73C281.629 116.66 281.775 117.672 281.783 118.766C281.775 119.852 281.629 120.859 281.344 121.789C281.059 122.719 280.643 123.586 280.096 124.391H279.205C279.471 124 279.721 123.494 279.955 122.873C280.189 122.252 280.379 121.58 280.523 120.857C280.668 120.135 280.74 119.438 280.74 118.766C280.74 118.094 280.668 117.398 280.523 116.68C280.379 115.961 280.189 115.291 279.955 114.67C279.721 114.049 279.471 113.543 279.205 113.152H280.096C280.643 113.941 281.059 114.801 281.344 115.73Z" fill="#707070"/>
<circle cx="299" cy="110" r="8" fill="#0033CC"/>
<circle cx="299" cy="110" r="6" fill="white"/>
<circle cx="299" cy="110" r="4" fill="#0033CC"/>
<circle cx="20" cy="110" r="8" fill="#0033CC"/>
<circle cx="20" cy="110" r="6" fill="white"/>
<circle cx="20" cy="110" r="4" fill="#0033CC"/>
<circle cx="213" cy="55" r="4" fill="#0033CC"/>
<circle cx="213" cy="165" r="4" fill="#0033CC"/>
<circle cx="105" cy="55" r="4" fill="#0033CC"/>
<circle cx="105" cy="165" r="4" fill="#0033CC"/>
<circle cx="213" cy="55" r="2" fill="white"/>
<circle cx="213" cy="165" r="2" fill="white"/>
<circle cx="105" cy="55" r="2" fill="white"/>
<circle cx="105" cy="165" r="2" fill="white"/>
</svg>
